<svg width="29" height="29" viewBox="0 0 29 29" fill="none" xmlns="http://www.w3.org/2000/svg">
<path d="M14.5 29C6.48992 29 0 22.5101 0 14.5C0 6.48992 6.48992 0 14.5 0C22.5101 0 29 6.48992 29 14.5C29 22.5101 22.5101 29 14.5 29ZM21.2823 11.9274H14.5V7.78206C14.5 7.15645 13.7399 6.84073 13.3014 7.28508L6.61855 14.003C6.34375 14.2778 6.34375 14.7163 6.61855 14.9911L13.3014 21.7091C13.7458 22.1534 14.5 21.8377 14.5 21.2121V17.0726H21.2823C21.6681 17.0726 21.9839 16.7569 21.9839 16.371V12.629C21.9839 12.2431 21.6681 11.9274 21.2823 11.9274Z" fill="#043D4D"/>
</svg>
